<svg width="35" height="35" viewBox="0 0 35 35" fill="none" xmlns="http://www.w3.org/2000/svg">
<g clip-path="url(#clip0_83_170)">
<path d="M33.0556 4.94958H30.4004V0.530444C30.4004 0.390314 30.3449 0.255877 30.2461 0.156494C30.1473 0.0571107 30.0132 0.000857868 29.8731 2.12711e-05H5.12689C5.05684 -0.000606111 4.98735 0.0126505 4.92245 0.0390258C4.85755 0.065401 4.79851 0.104372 4.74875 0.153689C4.699 0.203006 4.6595 0.261692 4.63255 0.326357C4.60559 0.391022 4.59172 0.460387 4.59172 0.530444V4.94958H1.94436C1.42894 4.95042 0.93487 5.15554 0.570414 5.51999C0.205958 5.88445 0.000837399 6.37852 0 6.89394L0 28.817C0.000837399 29.3324 0.205958 29.8265 0.570414 30.191C0.93487 30.5554 1.42894 30.7605 1.94436 30.7614H10.6085V33.9439H6.89392C6.82193 33.94 6.74989 33.9508 6.68221 33.9756C6.61453 34.0004 6.55262 34.0388 6.50027 34.0884C6.44791 34.138 6.40621 34.1977 6.37772 34.2639C6.34922 34.3301 6.33452 34.4015 6.33452 34.4736C6.33452 34.5457 6.34922 34.617 6.37772 34.6832C6.40621 34.7494 6.44791 34.8092 6.50027 34.8587C6.55262 34.9083 6.61453 34.9467 6.68221 34.9715C6.74989 34.9963 6.82193 35.0071 6.89392 35.0032H28.1108C28.2463 34.9958 28.3738 34.9367 28.467 34.8382C28.5603 34.7397 28.6123 34.6092 28.6123 34.4736C28.6123 34.3379 28.5603 34.2074 28.467 34.1089C28.3738 34.0104 28.2463 33.9513 28.1108 33.9439H24.3931V30.7614H33.0556C33.5711 30.7605 34.0651 30.5554 34.4296 30.191C34.794 29.8265 34.9992 29.3324 35 28.817V6.89394C34.9992 6.37852 34.794 5.88445 34.4296 5.51999C34.0651 5.15554 33.5711 4.95042 33.0556 4.94958ZM33.0556 6.01043C33.1717 6.01043 33.2866 6.03328 33.3937 6.07768C33.5009 6.12208 33.5983 6.18716 33.6804 6.2692C33.7624 6.35124 33.8275 6.44864 33.8719 6.55583C33.9163 6.66302 33.9392 6.77791 33.9392 6.89394V25.4556H30.4004V6.01676L33.0556 6.01043ZM5.65573 1.06087H29.3427V25.4556H5.65573V1.06087ZM1.06085 6.89394C1.06252 6.66071 1.15634 6.43761 1.32185 6.27329C1.48736 6.10897 1.71113 6.01675 1.94436 6.01676H4.59172V25.4556H1.06085V6.89394ZM23.3339 33.9408H11.6661V30.7582H23.3339V33.9408ZM33.9423 28.8139C33.9423 29.0482 33.8492 29.2729 33.6835 29.4386C33.5179 29.6043 33.2931 29.6974 33.0588 29.6974H1.94436C1.71058 29.6974 1.48634 29.6047 1.32074 29.4397C1.15514 29.2747 1.06168 29.0508 1.06085 28.817V26.5164H33.9392L33.9423 28.8139ZM26.3153 6.01676H8.6831C8.54243 6.01676 8.40751 5.96088 8.30804 5.8614C8.20856 5.76193 8.15268 5.62701 8.15268 5.48634C8.15268 5.34566 8.20856 5.21074 8.30804 5.11127C8.40751 5.0118 8.54243 4.95591 8.6831 4.95591H26.3153C26.456 4.95591 26.5909 5.0118 26.6904 5.11127C26.7899 5.21074 26.8457 5.34566 26.8457 5.48634C26.8457 5.62701 26.7899 5.76193 26.6904 5.8614C26.5909 5.96088 26.456 6.01676 26.3153 6.01676ZM21.0317 2.62522C21.105 2.70014 21.1547 2.79487 21.1748 2.89774C21.1949 3.0006 21.1844 3.10709 21.1447 3.20407C21.1049 3.30105 21.0377 3.38427 20.9512 3.44348C20.8647 3.50268 20.7628 3.53527 20.658 3.53723C19.6637 3.44223 20.2527 2.01246 21.0317 2.62522ZM23.4859 2.47638C23.6265 2.47638 23.7615 2.53227 23.8609 2.63174C23.9604 2.73122 24.0163 2.86613 24.0163 3.00681C24.0163 3.14748 23.9604 3.2824 23.8609 3.38187C23.7615 3.48135 23.6265 3.53723 23.4859 3.53723C23.3452 3.53723 23.2103 3.48135 23.1108 3.38187C23.0113 3.2824 22.9554 3.14748 22.9554 3.00681C22.9554 2.86613 23.0113 2.73122 23.1108 2.63174C23.2103 2.53227 23.3452 2.47638 23.4859 2.47638ZM26.689 2.62522C26.7616 2.70051 26.8108 2.79533 26.8304 2.8981C26.85 3.00086 26.8392 3.10712 26.7994 3.20387C26.7596 3.30062 26.6925 3.38368 26.6062 3.44288C26.52 3.50208 26.4183 3.53487 26.3137 3.53723C25.3194 3.44223 25.9084 2.01246 26.689 2.62522ZM20.1086 11.1041L15.8652 21.0032C15.8376 21.0676 15.7977 21.126 15.7475 21.1751C15.6974 21.2241 15.6381 21.2627 15.5731 21.2888C15.508 21.3149 15.4385 21.3279 15.3684 21.3272C15.2983 21.3264 15.229 21.3118 15.1646 21.2842C15.1001 21.2567 15.0417 21.2167 14.9927 21.1666C14.9437 21.1165 14.905 21.0572 14.8789 20.9921C14.8528 20.9271 14.8398 20.8575 14.8406 20.7874C14.8414 20.7173 14.856 20.6481 14.8835 20.5836L19.1253 10.6845C19.1807 10.5551 19.2853 10.4531 19.4159 10.4009C19.5466 10.3486 19.6926 10.3504 19.822 10.4058C19.9513 10.4612 20.0533 10.5658 20.1056 10.6964C20.1579 10.8271 20.1561 10.9731 20.1007 11.1025L20.1086 11.1041ZM13.4078 13.0579L10.3108 15.8446L13.4078 18.6329C13.5128 18.727 13.5761 18.8589 13.5838 18.9996C13.5916 19.1404 13.5431 19.2784 13.449 19.3834C13.3549 19.4884 13.223 19.5517 13.0823 19.5594C12.9415 19.5672 12.8035 19.5186 12.6985 19.4246L9.16286 16.242C9.10707 16.1923 9.06244 16.1313 9.03187 16.0631C9.00131 15.9949 8.98551 15.921 8.98551 15.8462C8.98551 15.7715 9.00131 15.6975 9.03187 15.6293C9.06244 15.5611 9.10707 15.5001 9.16286 15.4504L12.6985 12.2678C12.7505 12.2213 12.8111 12.1854 12.877 12.1622C12.9428 12.1391 13.0126 12.1292 13.0823 12.133C13.152 12.1368 13.2202 12.1543 13.2831 12.1845C13.3461 12.2147 13.4024 12.257 13.449 12.309C13.4956 12.361 13.5315 12.4216 13.5546 12.4875C13.5777 12.5533 13.5877 12.6231 13.5838 12.6928C13.58 12.7625 13.5625 12.8307 13.5323 12.8937C13.5021 12.9566 13.4598 13.0129 13.4078 13.0595V13.0579ZM25.8356 15.4504C25.8911 15.5003 25.9356 15.5613 25.966 15.6295C25.9964 15.6977 26.0121 15.7715 26.0121 15.8462C26.0121 15.9209 25.9964 15.9947 25.966 16.0629C25.9356 16.1311 25.8911 16.1922 25.8356 16.242L22.2999 19.423C22.1949 19.5171 22.0569 19.5656 21.9162 19.5579C21.7754 19.5501 21.6435 19.4868 21.5494 19.3818C21.4554 19.2769 21.4069 19.1388 21.4146 18.9981C21.4223 18.8573 21.4856 18.7254 21.5906 18.6313L24.6892 15.843L21.5906 13.0563C21.5386 13.0098 21.4963 12.9534 21.4661 12.8905C21.4359 12.8276 21.4184 12.7593 21.4146 12.6896C21.4107 12.6199 21.4207 12.5502 21.4438 12.4843C21.467 12.4185 21.5028 12.3578 21.5494 12.3058C21.6435 12.2009 21.7754 12.1375 21.9162 12.1298C21.9858 12.126 22.0556 12.1359 22.1215 12.1591C22.1873 12.1822 22.2479 12.2181 22.2999 12.2647L25.8356 15.4504Z" fill="#008080"/>
</g>
<defs>
<clipPath id="clip0_83_170">
<rect width="35" height="35" fill="white"/>
</clipPath>
</defs>
</svg>
