<svg width="220" height="43" viewBox="0 0 220 43" fill="none" xmlns="http://www.w3.org/2000/svg">
<rect width="43.0845" height="43" fill="#008080"/>
<path d="M23.9658 12.4045C23.9658 11.1225 24.1965 9.95243 24.658 8.89442C25.1194 7.83642 25.796 6.9869 26.6877 6.34588C27.5857 5.69863 28.6177 5.375 29.7838 5.375C31.5423 5.375 32.9578 5.99424 34.0304 7.23273C35.1092 8.47122 35.6486 10.0956 35.6486 12.1058C35.6486 12.8402 35.5737 13.5528 35.4241 14.2436C35.2806 14.9344 35.053 15.591 34.7413 16.2133C34.4295 16.8295 34.0491 17.3709 33.6001 17.8377C33.1574 18.2982 32.6117 18.6654 31.9632 18.9392C31.3147 19.2131 30.6069 19.35 29.8399 19.35C28.0128 19.35 26.5755 18.7152 25.5279 17.4456C24.4865 16.176 23.9658 14.4956 23.9658 12.4045ZM26.4726 12.1991C26.4726 13.4252 26.5942 14.533 26.8374 15.5225C27.0806 16.5058 27.4547 17.3056 27.9598 17.9217C28.4712 18.5316 29.0792 18.8366 29.7838 18.8366C30.8314 18.8366 31.6514 18.2298 32.2438 17.0162C32.8425 15.8026 33.1418 14.1907 33.1418 12.1805C33.1418 10.0893 32.8487 8.5179 32.2625 7.46612C31.6826 6.41433 30.8751 5.88844 29.8399 5.88844C29.4783 5.88844 29.1322 5.96313 28.8017 6.11249C28.4774 6.26186 28.1719 6.50146 27.885 6.83131C27.5982 7.16116 27.3519 7.5688 27.1461 8.05424C26.9403 8.53346 26.775 9.12781 26.6503 9.83729C26.5318 10.5468 26.4726 11.3341 26.4726 12.1991Z" fill="white"/>
<path d="M6.7319 5.8157V5.375H12.4918V5.8157L10.9709 5.91363L14.2777 11.8581H14.3268L17.0939 5.91363L15.7103 5.8157V5.375H18.9779V5.8157L17.7612 5.91363L14.6997 12.4653V18.8114L16.2108 18.9093V19.35H10.6863V18.9093L12.1877 18.8114V13.0431L8.05659 5.91363L6.7319 5.8157Z" fill="white"/>
<path d="M23.4272 37.6244V37.1837L24.9383 37.0858V24.188L23.4272 24.0901V23.6494H28.6573C29.3834 23.6494 30.0375 23.7114 30.6198 23.8355C31.2085 23.9595 31.7318 24.1554 32.1898 24.4231C32.6542 24.6908 33.0107 25.0531 33.2593 25.5101C33.5144 25.9606 33.642 26.496 33.642 27.1162C33.642 28.2327 33.2659 29.1043 32.5136 29.731C31.7613 30.3513 30.744 30.7528 29.4619 30.9356V30.9552C30.0114 30.9617 30.4857 31.0499 30.8847 31.2196C31.2903 31.3894 31.6108 31.6081 31.8463 31.8758C32.0884 32.1369 32.3173 32.4764 32.5332 32.8943C32.6771 33.1815 32.8799 33.6222 33.1416 34.2164C33.4098 34.804 33.6747 35.3263 33.9364 35.7833C34.1457 36.1554 34.3649 36.4427 34.5938 36.6451C34.8228 36.8475 35.0158 36.9715 35.1728 37.0172C35.3298 37.0629 35.5097 37.0858 35.7124 37.0858V37.6244H34.0836C33.5864 37.6244 33.1939 37.595 32.9061 37.5363C32.6182 37.471 32.3304 37.3208 32.0426 37.0858C31.7613 36.8507 31.5094 36.5276 31.287 36.1163C31.0646 35.6984 30.6852 34.8301 30.1488 33.5112C30.0703 33.3154 29.9558 33.064 29.8053 32.7572C29.6614 32.4438 29.5338 32.2087 29.4226 32.052C29.318 31.8888 29.1904 31.7191 29.0399 31.5428C28.896 31.3665 28.7456 31.2425 28.5886 31.1706C28.4381 31.0923 28.2778 31.0531 28.1078 31.0531C27.8199 31.0531 27.6008 31.0564 27.4503 31.0629V37.0858L28.9614 37.1837V37.6244H23.4272ZM27.4503 30.5047C27.5223 30.5112 27.6564 30.5145 27.8526 30.5145C29.017 30.5145 29.8348 30.2338 30.3058 29.6723C30.7833 29.1043 31.0221 28.2588 31.0221 27.1358C31.0221 26.5743 30.9534 26.0977 30.816 25.706C30.6852 25.3143 30.4955 25.0107 30.2469 24.7952C29.9983 24.5798 29.7235 24.4263 29.4226 24.3349C29.1217 24.2435 28.7783 24.1978 28.3923 24.1978C28.1372 24.1978 27.8232 24.224 27.4503 24.2762V30.5047Z" fill="white"/>
<path d="M6.46277 24.0796V23.6494H11.8645V24.0796L10.38 24.1751V33.1031C10.38 33.3644 10.3864 33.597 10.3992 33.8009C10.4119 34.0048 10.4407 34.2501 10.4854 34.5369C10.5364 34.8173 10.6067 35.0626 10.6961 35.2729C10.7855 35.4832 10.9132 35.6999 11.0792 35.9229C11.2452 36.146 11.4431 36.3308 11.673 36.4774C11.9028 36.6176 12.1902 36.7354 12.535 36.831C12.8861 36.9202 13.2788 36.9649 13.713 36.9649C14.2366 36.9649 14.6995 36.8852 15.1018 36.7259C15.5104 36.5602 15.8392 36.3467 16.0883 36.0854C16.3437 35.8242 16.5512 35.5055 16.7108 35.1296C16.8768 34.7536 16.9917 34.3712 17.0556 33.9825C17.1194 33.5938 17.1514 33.1732 17.1514 32.7207V24.1751L15.686 24.0796V23.6494H19.2297V24.0796L17.7643 24.1751V32.931C17.7643 33.3899 17.726 33.8264 17.6494 34.2406C17.5792 34.6484 17.4451 35.0658 17.2471 35.4928C17.0492 35.9198 16.7938 36.2862 16.4809 36.5921C16.1681 36.8916 15.7467 37.1369 15.2167 37.3281C14.6931 37.5256 14.0897 37.6244 13.4065 37.6244C12.6978 37.6244 12.0625 37.5734 11.5006 37.4715C10.9451 37.3695 10.4758 37.2357 10.0927 37.07C9.71596 36.9043 9.39032 36.6908 9.11576 36.4296C8.84759 36.1683 8.63688 35.907 8.48364 35.6457C8.3304 35.3845 8.20908 35.0754 8.11969 34.7185C8.03669 34.3553 7.98241 34.0271 7.95687 33.734C7.93772 33.4408 7.92814 33.0999 7.92814 32.7112V24.1751L6.46277 24.0796Z" fill="white"/>
<rect x="1" y="1" width="218" height="41" stroke="#008080" stroke-width="2"/>
<path d="M190.959 33.0563V32.2827L193.611 32.1108V9.47087L190.959 9.29897V8.52539H200.139C201.414 8.52539 202.562 8.63426 203.584 8.85201C204.618 9.06976 205.536 9.41357 206.34 9.88344C207.155 10.3533 207.781 10.9894 208.217 11.7916C208.665 12.5824 208.889 13.5221 208.889 14.6108C208.889 16.5706 208.229 18.1005 206.908 19.2007C205.588 20.2895 203.802 20.9943 201.552 21.3152V21.3495C202.516 21.361 203.349 21.5157 204.049 21.8137C204.761 22.1117 205.324 22.4956 205.737 22.9655C206.162 23.4239 206.564 24.0198 206.943 24.7533C207.195 25.2575 207.551 26.0311 208.011 27.074C208.481 28.1054 208.947 29.0223 209.406 29.8245C209.773 30.4777 210.158 30.982 210.56 31.3373C210.962 31.6925 211.301 31.9103 211.576 31.9905C211.852 32.0707 212.167 32.1108 212.523 32.1108V33.0563H209.664C208.792 33.0563 208.103 33.0047 207.597 32.9016C207.092 32.787 206.587 32.5234 206.082 32.1108C205.588 31.6983 205.146 31.131 204.755 30.409C204.365 29.6755 203.699 28.1513 202.757 25.8363C202.619 25.4925 202.419 25.0512 202.154 24.5126C201.902 23.9625 201.678 23.5499 201.483 23.2749C201.299 22.9884 201.075 22.6904 200.811 22.381C200.558 22.0715 200.294 21.8538 200.019 21.7277C199.755 21.5902 199.473 21.5214 199.175 21.5214C198.669 21.5214 198.285 21.5272 198.021 21.5386V32.1108L200.673 32.2827V33.0563H190.959ZM198.021 20.5588C198.147 20.5702 198.382 20.576 198.727 20.576C200.771 20.576 202.206 20.0832 203.033 19.0976C203.871 18.1005 204.29 16.6164 204.29 14.6452C204.29 13.6596 204.17 12.823 203.929 12.1354C203.699 11.4478 203.366 10.9149 202.93 10.5367C202.493 10.1585 202.011 9.88917 201.483 9.72873C200.954 9.56828 200.352 9.48806 199.674 9.48806C199.226 9.48806 198.675 9.5339 198.021 9.62559V20.5588Z" fill="white"/>
<path d="M166.44 20.8683C166.44 18.5075 166.865 16.3529 167.715 14.4047C168.564 12.4564 169.81 10.8921 171.452 9.71165C173.106 8.51977 175.006 7.92383 177.154 7.92383C180.392 7.92383 182.998 9.06413 184.973 11.3447C186.96 13.6254 187.953 16.6165 187.953 20.3182C187.953 21.6705 187.815 22.9828 187.54 24.2549C187.276 25.527 186.857 26.736 186.282 27.8821C185.708 29.0166 185.008 30.0137 184.181 30.8732C183.366 31.7213 182.361 32.3974 181.167 32.9017C179.973 33.406 178.669 33.6581 177.257 33.6581C173.892 33.6581 171.246 32.4891 169.317 30.1512C167.399 27.8133 166.44 24.719 166.44 20.8683ZM171.056 20.4901C171.056 22.7478 171.28 24.7878 171.728 26.61C172.176 28.4207 172.865 29.8934 173.795 31.0279C174.736 32.151 175.856 32.7126 177.154 32.7126C179.083 32.7126 180.593 31.5952 181.684 29.3604C182.786 27.1257 183.337 24.1574 183.337 20.4557C183.337 16.6051 182.797 13.7113 181.718 11.7745C180.65 9.83771 179.163 8.86931 177.257 8.86931C176.591 8.86931 175.954 9.00683 175.345 9.28188C174.748 9.55693 174.185 9.99815 173.657 10.6056C173.129 11.213 172.675 11.9636 172.296 12.8575C171.917 13.74 171.613 14.8344 171.383 16.1409C171.165 17.4474 171.056 18.8971 171.056 20.4901Z" fill="white"/>
<path d="M153.703 33.0563V32.2827L156.356 32.1108V9.47087L153.703 9.29897V8.52539H163.418V9.29897L160.765 9.47087V32.1108L163.418 32.2827V33.0563H153.703Z" fill="white"/>
<path d="M131.131 33.0563V32.2827L133.784 32.1108V9.47087L131.131 9.29897V8.52539H140.312C141.586 8.52539 142.734 8.63426 143.756 8.85201C144.79 9.06976 145.709 9.41357 146.512 9.88344C147.328 10.3533 147.953 10.9894 148.39 11.7916C148.838 12.5824 149.062 13.5221 149.062 14.6108C149.062 16.5706 148.401 18.1005 147.081 19.2007C145.76 20.2895 143.975 20.9943 141.724 21.3152V21.3495C142.689 21.361 143.521 21.5157 144.221 21.8137C144.933 22.1117 145.496 22.4956 145.909 22.9655C146.334 23.4239 146.736 24.0198 147.115 24.7533C147.368 25.2575 147.724 26.0311 148.183 27.074C148.654 28.1054 149.119 29.0223 149.578 29.8245C149.946 30.4777 150.33 30.982 150.732 31.3373C151.134 31.6925 151.473 31.9103 151.749 31.9905C152.024 32.0707 152.34 32.1108 152.696 32.1108V33.0563H149.837C148.964 33.0563 148.275 33.0047 147.77 32.9016C147.264 32.787 146.759 32.5234 146.254 32.1108C145.76 31.6983 145.318 31.131 144.928 30.409C144.537 29.6755 143.871 28.1513 142.93 25.8363C142.792 25.4925 142.591 25.0512 142.327 24.5126C142.074 23.9625 141.85 23.5499 141.655 23.2749C141.471 22.9884 141.247 22.6904 140.983 22.381C140.731 22.0715 140.467 21.8538 140.191 21.7277C139.927 21.5902 139.646 21.5214 139.347 21.5214C138.842 21.5214 138.457 21.5272 138.193 21.5386V32.1108L140.846 32.2827V33.0563H131.131ZM138.193 20.5588C138.319 20.5702 138.555 20.576 138.899 20.576C140.943 20.576 142.378 20.0832 143.205 19.0976C144.044 18.1005 144.463 16.6164 144.463 14.6452C144.463 13.6596 144.342 12.823 144.101 12.1354C143.871 11.4478 143.538 10.9149 143.102 10.5367C142.666 10.1585 142.183 9.88917 141.655 9.72873C141.127 9.56828 140.524 9.48806 139.847 9.48806C139.399 9.48806 138.848 9.5339 138.193 9.62559V20.5588Z" fill="white"/>
<path d="M109.937 33.0563V32.2827L112.589 32.1108V9.47087L109.937 9.29897V8.52539H126.903L127.075 15.5219H126.351C126.214 14.7426 126.064 14.0837 125.904 13.545C125.754 12.9949 125.536 12.4448 125.249 11.8947C124.962 11.3446 124.623 10.9091 124.233 10.5883C123.854 10.2559 123.36 9.98659 122.752 9.7803C122.154 9.57401 121.46 9.47087 120.667 9.47087C119.691 9.47087 118.468 9.52817 116.999 9.64278V19.854C117.343 19.8883 117.969 19.9055 118.876 19.9055C120.082 19.9055 120.943 19.6133 121.46 19.0288C121.977 18.4329 122.235 17.3556 122.235 15.797H123.182V25.0283H122.235C122.235 23.4697 121.971 22.3867 121.443 21.7793C120.926 21.1604 120.07 20.851 118.876 20.851C117.992 20.851 117.366 20.8682 116.999 20.9026V31.9389C118.468 32.0535 119.927 32.1108 121.374 32.1108C122.051 32.1108 122.648 32.0593 123.165 31.9561C123.682 31.8415 124.13 31.6581 124.508 31.406C124.887 31.1539 125.209 30.8731 125.473 30.5637C125.737 30.2428 125.967 29.8359 126.162 29.3431C126.369 28.8504 126.535 28.3576 126.662 27.8648C126.788 27.372 126.92 26.7646 127.058 26.0426H127.798L127.609 33.0563H109.937Z" fill="white"/>
<path d="M88.1397 16.9488L88.312 8.52539H107.121L107.293 16.9316H106.346C106.185 16.0491 106.042 15.3386 105.915 14.7999C105.8 14.2613 105.657 13.694 105.485 13.0981C105.312 12.5021 105.134 12.038 104.951 11.7056C104.767 11.3733 104.543 11.0409 104.279 10.7086C104.015 10.3762 103.71 10.1356 103.366 9.98659C103.033 9.82614 102.643 9.70008 102.195 9.6084C101.747 9.50525 101.23 9.45368 100.645 9.45368C100.599 9.45368 100.501 9.45941 100.352 9.47087C100.214 9.47087 100.088 9.47087 99.9728 9.47087V32.1108L102.643 32.2827V33.0563H92.9281V32.2827L95.5634 32.1108L95.46 9.48806C95.3452 9.48806 95.2132 9.48806 95.0639 9.48806C94.9261 9.4766 94.8342 9.47087 94.7883 9.47087C94.2716 9.47087 93.8123 9.49952 93.4103 9.55682C93.0084 9.61413 92.641 9.723 92.308 9.88344C91.9865 10.0439 91.7051 10.2158 91.464 10.3992C91.2229 10.5825 90.9989 10.8461 90.7923 11.1899C90.5856 11.5337 90.4076 11.8661 90.2583 12.187C90.1205 12.5079 89.9712 12.9491 89.8105 13.5107C89.6612 14.0607 89.4201 15.2068 89.087 16.9488H88.1397Z" fill="white"/>
<path d="M63.587 9.29897V8.52539H67.273L82.0515 26.4036H82.086L81.8448 9.47087L79.2095 9.29897V8.52539H85.5825V9.29897L82.9299 9.47087L83.1194 33.4001H82.0687L67.2903 15.4704H67.2558L67.497 32.1108L70.1323 32.2827V33.0563H63.7593V32.2827L66.4118 32.1108L66.2224 9.47087L63.587 9.29897Z" fill="white"/>
<path d="M51.0737 33.0563V32.2827L53.7263 32.1108V9.47087L51.0737 9.29897V8.52539H60.7882V9.29897L58.1357 9.47087V32.1108L60.7882 32.2827V33.0563H51.0737Z" fill="white"/>
</svg>
