<svg width="740" height="124" viewBox="0 0 740 124" fill="none" xmlns="http://www.w3.org/2000/svg">
<rect width="144.92" height="124" fill="#008080"/>
<path d="M80.6125 35.7711C80.6125 32.0741 81.3886 28.7 82.9407 25.649C84.4928 22.598 86.7686 20.1483 89.768 18.2997C92.7884 16.4332 96.2598 15.5 100.182 15.5C106.097 15.5 110.858 17.2857 114.466 20.8572C118.095 24.4286 119.909 29.1128 119.909 34.9097C119.909 37.0274 119.657 39.0824 119.154 41.0745C118.671 43.0666 117.906 44.96 116.857 46.7547C115.808 48.5315 114.529 50.0929 113.019 51.4389C111.53 52.767 109.694 53.8258 107.513 54.6155C105.331 55.4052 102.951 55.8 100.371 55.8C94.2252 55.8 89.3905 53.9694 85.8667 50.3082C82.3639 46.647 80.6125 41.8013 80.6125 35.7711ZM89.0444 35.1789C89.0444 38.7145 89.4534 41.909 90.2714 44.7626C91.0895 47.5982 92.348 49.9044 94.0469 51.6812C95.7669 53.44 97.8119 54.3194 100.182 54.3194C103.706 54.3194 106.464 52.5695 108.457 49.0699C110.47 45.5702 111.477 40.9219 111.477 35.125C111.477 29.0949 110.491 24.5632 108.52 21.5302C106.569 18.4971 103.853 16.9806 100.371 16.9806C99.1543 16.9806 97.9902 17.196 96.8785 17.6267C95.7878 18.0574 94.7601 18.7484 93.7952 19.6996C92.8304 20.6508 92.0019 21.8263 91.3097 23.2262C90.6175 24.6081 90.0617 26.322 89.6422 28.368C89.2437 30.414 89.0444 32.6843 89.0444 35.1789Z" fill="white"/>
<path d="M22.6438 16.7708V15.5H42.0181V16.7708L36.9023 17.0533L48.0252 34.1956H48.1902L57.4978 17.0533L52.844 16.7708V15.5H63.8349V16.7708L59.7422 17.0533L49.4444 35.9465V54.2467L54.5273 54.5292V55.8H35.9451V54.5292L40.995 54.2467V37.6128L27.0996 17.0533L22.6438 16.7708Z" fill="white"/>
<path d="M78.8007 108.5V107.229L83.8835 106.947V69.7533L78.8007 69.4708V68.2H96.3927C98.8351 68.2 101.036 68.3789 102.994 68.7366C104.974 69.0943 106.734 69.6591 108.275 70.431C109.837 71.203 111.036 72.2479 111.872 73.5658C112.731 74.8649 113.16 76.4087 113.16 78.1973C113.16 81.4168 111.894 83.9303 109.364 85.7377C106.834 87.5263 103.412 88.6842 99.0992 89.2113V89.2678C100.947 89.2867 102.543 89.5408 103.885 90.0303C105.249 90.5199 106.327 91.1506 107.12 91.9225C107.934 92.6756 108.704 93.6546 109.43 94.8596C109.914 95.688 110.596 96.9588 111.476 98.6721C112.378 100.367 113.27 101.873 114.15 103.191C114.854 104.264 115.591 105.092 116.361 105.676C117.131 106.26 117.78 106.617 118.309 106.749C118.837 106.881 119.442 106.947 120.124 106.947V108.5H114.645C112.973 108.5 111.652 108.415 110.684 108.246C109.716 108.058 108.748 107.625 107.78 106.947C106.834 106.269 105.986 105.337 105.238 104.151C104.49 102.946 103.214 100.442 101.41 96.6388C101.146 96.0739 100.76 95.3491 100.254 94.4642C99.7703 93.5605 99.3412 92.8827 98.9672 92.4308C98.6151 91.9601 98.186 91.4706 97.6799 90.9623C97.1958 90.454 96.6898 90.0962 96.1617 89.8891C95.6556 89.6632 95.1165 89.5502 94.5444 89.5502C93.5762 89.5502 92.8391 89.5597 92.333 89.5785V106.947L97.4159 107.229V108.5H78.8007ZM92.333 87.9687C92.575 87.9876 93.0261 87.997 93.6862 87.997C97.6029 87.997 100.353 87.1874 101.938 85.5683C103.544 83.9303 104.347 81.4921 104.347 78.2538C104.347 76.6347 104.116 75.2603 103.654 74.1306C103.214 73.001 102.576 72.1255 101.74 71.5042C100.903 70.8829 99.9793 70.4405 98.9672 70.1769C97.955 69.9133 96.7998 69.7815 95.5016 69.7815C94.6434 69.7815 93.5872 69.8568 92.333 70.0074V87.9687Z" fill="white"/>
<path d="M21.7386 69.4404V68.2H39.9082V69.4404L34.9148 69.7161V95.4618C34.9148 96.2152 34.9363 96.886 34.9792 97.474C35.0222 98.0621 35.1188 98.7696 35.2692 99.5965C35.441 100.405 35.6772 101.113 35.9779 101.719C36.2786 102.325 36.7081 102.95 37.2665 103.593C37.825 104.237 38.4907 104.77 39.2639 105.192C40.0371 105.596 41.0036 105.936 42.1633 106.212C43.3446 106.469 44.6654 106.598 46.1258 106.598C47.8869 106.598 49.444 106.368 50.7971 105.909C52.1716 105.431 53.2777 104.815 54.1153 104.062C54.9744 103.309 55.6724 102.39 56.2093 101.306C56.7677 100.221 57.1543 99.1187 57.3691 97.9977C57.5838 96.8768 57.6912 95.6639 57.6912 94.3592V69.7161L52.7622 69.4404V68.2H64.682V69.4404L59.753 69.7161V94.9656C59.753 96.2887 59.6241 97.5475 59.3664 98.742C59.1302 99.9181 58.6792 101.122 58.0134 102.353C57.3476 103.584 56.4885 104.641 55.4361 105.523C54.3838 106.387 52.9663 107.094 51.1837 107.645C49.4226 108.215 47.393 108.5 45.0949 108.5C42.711 108.5 40.574 108.353 38.684 108.059C36.8155 107.765 35.237 107.379 33.9483 106.901C32.6812 106.423 31.5859 105.808 30.6624 105.054C29.7603 104.301 29.0516 103.547 28.5361 102.794C28.0207 102.041 27.6126 101.149 27.3119 100.12C27.0327 99.0728 26.8502 98.1264 26.7643 97.281C26.6998 96.4357 26.6676 95.4526 26.6676 94.3316V69.7161L21.7386 69.4404Z" fill="white"/>
<rect x="1" y="1" width="738" height="122" stroke="#008080" stroke-width="2"/>
<path d="M642.315 95.325V93.0942L651.238 92.5985V27.3111L642.315 26.8154V24.5846H673.195C677.483 24.5846 681.345 24.8986 684.783 25.5265C688.259 26.1544 691.349 27.1459 694.052 28.5009C696.795 29.8559 698.9 31.6901 700.368 34.0035C701.874 36.2838 702.627 38.9938 702.627 42.1334C702.627 47.7847 700.406 52.1967 695.964 55.3693C691.523 58.5089 685.516 60.5414 677.946 61.4668V61.5659C681.191 61.599 683.991 62.0451 686.347 62.9044C688.742 63.7636 690.634 64.8708 692.025 66.2258C693.454 67.5477 694.806 69.2662 696.08 71.3813C696.93 72.8355 698.127 75.0662 699.672 78.0736C701.256 81.048 702.82 83.6919 704.365 86.0053C705.601 87.889 706.895 89.3432 708.247 90.3677C709.599 91.3922 710.738 92.0201 711.665 92.2514C712.592 92.4828 713.654 92.5985 714.852 92.5985V95.325H705.234C702.299 95.325 699.981 95.1762 698.282 94.8788C696.582 94.5483 694.883 93.7882 693.183 92.5985C691.523 91.4087 690.036 89.7728 688.722 87.6908C687.409 85.5756 685.169 81.1802 682.002 74.5044C681.538 73.5129 680.862 72.2406 679.974 70.6873C679.124 69.101 678.371 67.9112 677.714 67.1181C677.096 66.2919 676.343 65.4326 675.455 64.5403C674.605 63.648 673.717 63.02 672.79 62.6565C671.901 62.2599 670.955 62.0616 669.951 62.0616C668.251 62.0616 666.958 62.0782 666.069 62.1112V92.5985L674.991 93.0942V95.325H642.315ZM666.069 59.2856C666.494 59.3186 667.286 59.3351 668.445 59.3351C675.32 59.3351 680.148 57.9141 682.929 55.0719C685.748 52.1967 687.158 47.9169 687.158 42.2325C687.158 39.3904 686.752 36.9778 685.941 34.9949C685.169 33.012 684.049 31.4753 682.581 30.3847C681.113 29.2941 679.491 28.5174 677.714 28.0547C675.938 27.5921 673.91 27.3607 671.631 27.3607C670.125 27.3607 668.271 27.4929 666.069 27.7573V59.2856Z" fill="white"/>
<path d="M559.844 60.1779C559.844 53.3699 561.273 47.1568 564.131 41.5385C566.989 35.9203 571.18 31.4092 576.703 28.0052C582.265 24.5681 588.658 22.8496 595.88 22.8496C606.772 22.8496 615.54 26.1379 622.183 32.7146C628.865 39.2912 632.206 47.9169 632.206 58.5915C632.206 62.4913 631.743 66.2753 630.816 69.9437C629.928 73.6121 628.518 77.0987 626.587 80.4036C624.655 83.6754 622.299 86.5506 619.518 89.0292C616.776 91.4748 613.396 93.4247 609.379 94.8788C605.363 96.3329 600.979 97.06 596.228 97.06C584.911 97.06 576.008 93.689 569.519 86.9472C563.069 80.2053 559.844 71.2822 559.844 60.1779ZM575.371 59.0873C575.371 65.5978 576.124 71.4805 577.63 76.7352C579.137 81.9568 581.454 86.2036 584.583 89.4754C587.75 92.7141 591.516 94.3335 595.88 94.3335C602.369 94.3335 607.448 91.1113 611.118 84.6668C614.825 78.2224 616.679 69.6628 616.679 58.9881C616.679 47.8838 614.864 39.5391 611.233 33.9539C607.641 28.3687 602.64 25.5761 596.228 25.5761C593.988 25.5761 591.844 25.9727 589.797 26.7658C587.788 27.559 585.896 28.8314 584.119 30.5829C582.342 32.3345 580.817 34.4992 579.542 37.077C578.268 39.6217 577.244 42.7778 576.472 46.5454C575.738 50.3129 575.371 54.4935 575.371 59.0873Z" fill="white"/>
<path d="M517.002 95.325V93.0942L525.924 92.5985V27.3111L517.002 26.8154V24.5846H549.678V26.8154L540.756 27.3111V92.5985L549.678 93.0942V95.325H517.002Z" fill="white"/>
<path d="M441.077 95.325V93.0942L449.999 92.5985V27.3111L441.077 26.8154V24.5846H471.957C476.245 24.5846 480.107 24.8986 483.544 25.5265C487.021 26.1544 490.111 27.1459 492.814 28.5009C495.557 29.8559 497.662 31.6901 499.129 34.0035C500.636 36.2838 501.389 38.9938 501.389 42.1334C501.389 47.7847 499.168 52.1967 494.726 55.3693C490.284 58.5089 484.278 60.5414 476.708 61.4668V61.5659C479.952 61.599 482.753 62.0451 485.109 62.9044C487.503 63.7636 489.396 64.8708 490.787 66.2258C492.216 67.5477 493.567 69.2662 494.842 71.3813C495.692 72.8355 496.889 75.0662 498.434 78.0736C500.018 81.048 501.582 83.6919 503.127 86.0053C504.363 87.889 505.657 89.3432 507.009 90.3677C508.361 91.3922 509.5 92.0201 510.427 92.2514C511.354 92.4828 512.416 92.5985 513.613 92.5985V95.325H503.996C501.061 95.325 498.743 95.1762 497.044 94.8788C495.344 94.5483 493.645 93.7882 491.945 92.5985C490.284 91.4087 488.797 89.7728 487.484 87.6908C486.171 85.5756 483.931 81.1802 480.764 74.5044C480.3 73.5129 479.624 72.2406 478.736 70.6873C477.886 69.101 477.133 67.9112 476.476 67.1181C475.858 66.2919 475.105 65.4326 474.217 64.5403C473.367 63.648 472.479 63.02 471.552 62.6565C470.663 62.2599 469.717 62.0616 468.713 62.0616C467.013 62.0616 465.719 62.0782 464.831 62.1112V92.5985L473.753 93.0942V95.325H441.077ZM464.831 59.2856C465.256 59.3186 466.048 59.3351 467.206 59.3351C474.082 59.3351 478.91 57.9141 481.691 55.0719C484.51 52.1967 485.92 47.9169 485.92 42.2325C485.92 39.3904 485.514 36.9778 484.703 34.9949C483.931 33.012 482.811 31.4753 481.343 30.3847C479.875 29.2941 478.253 28.5174 476.476 28.0547C474.7 27.5921 472.672 27.3607 470.393 27.3607C468.887 27.3607 467.033 27.4929 464.831 27.7573V59.2856Z" fill="white"/>
<path d="M369.787 95.325V93.0942L378.709 92.5985V27.3111L369.787 26.8154V24.5846H426.854L427.434 44.7607H425C424.537 42.5135 424.035 40.6132 423.494 39.0599C422.992 37.4736 422.258 35.8872 421.292 34.3009C420.327 32.7146 419.187 31.4587 417.874 30.5334C416.6 29.575 414.939 28.7983 412.892 28.2035C410.883 27.6086 408.546 27.3111 405.881 27.3111C402.598 27.3111 398.485 27.4764 393.541 27.8069V57.2531C394.7 57.3522 396.805 57.4018 399.856 57.4018C403.911 57.4018 406.808 56.5591 408.546 54.8736C410.284 53.1551 411.154 50.0485 411.154 45.5539H414.34V72.1745H411.154C411.154 67.6799 410.265 64.5568 408.488 62.8052C406.75 61.0206 403.873 60.1283 399.856 60.1283C396.882 60.1283 394.777 60.1779 393.541 60.277V92.1027C398.485 92.4332 403.39 92.5985 408.257 92.5985C410.536 92.5985 412.544 92.4497 414.282 92.1523C416.02 91.8218 417.527 91.293 418.801 90.566C420.076 89.8389 421.157 89.0292 422.046 88.1369C422.934 87.2116 423.706 86.0383 424.363 84.6172C425.058 83.1962 425.618 81.7751 426.043 80.354C426.468 78.9329 426.912 77.1813 427.376 75.0993H429.867L429.23 95.325H369.787Z" fill="white"/>
<path d="M296.47 48.8753L297.049 24.5846H360.316L360.895 48.8257H357.709C357.168 46.281 356.685 44.232 356.26 42.6787C355.874 41.1254 355.391 39.4895 354.812 37.771C354.232 36.0525 353.634 34.714 353.016 33.7556C352.398 32.7972 351.645 31.8388 350.756 30.8804C349.868 29.922 348.844 29.228 347.686 28.7983C346.565 28.3356 345.252 27.9721 343.746 27.7077C342.24 27.4103 340.501 27.2616 338.532 27.2616C338.377 27.2616 338.049 27.2781 337.547 27.3111C337.083 27.3111 336.658 27.3111 336.272 27.3111V92.5985L345.252 93.0942V95.325H312.576V93.0942L321.44 92.5985L321.093 27.3607C320.707 27.3607 320.262 27.3607 319.76 27.3607C319.297 27.3277 318.988 27.3111 318.833 27.3111C317.095 27.3111 315.55 27.3938 314.198 27.559C312.847 27.7242 311.611 28.0382 310.49 28.5009C309.409 28.9636 308.463 29.4593 307.652 29.9881C306.84 30.5168 306.087 31.277 305.392 32.2684C304.697 33.2599 304.098 34.2183 303.596 35.1436C303.133 36.069 302.63 37.3414 302.09 38.9607C301.588 40.5471 300.776 43.8519 299.656 48.8753H296.47Z" fill="white"/>
<path d="M213.884 26.8154V24.5846H226.282L275.992 76.1403H276.107L275.296 27.3111L266.432 26.8154V24.5846H287.868V26.8154L278.946 27.3111L279.584 96.3164H276.049L226.34 44.612H226.224L227.035 92.5985L235.9 93.0942V95.325H214.463V93.0942L223.385 92.5985L222.748 27.3111L213.884 26.8154Z" fill="white"/>
<path d="M171.794 95.325V93.0942L180.716 92.5985V27.3111L171.794 26.8154V24.5846H204.47V26.8154L195.547 27.3111V92.5985L204.47 93.0942V95.325H171.794Z" fill="white"/>
</svg>
